<?xml version="1.0" standalone="no"?>
<!DOCTYPE svg PUBLIC "-//W3C//DTD SVG 20010904//EN"
 "http://www.w3.org/TR/2001/REC-SVG-20010904/DTD/svg10.dtd">
<svg version="1.0" xmlns="http://www.w3.org/2000/svg"
 width="1080.000000pt" height="1080.000000pt" viewBox="0 0 1080.000000 1080.000000"
 preserveAspectRatio="xMidYMid meet">

<g transform="translate(0.000000,1080.000000) scale(0.100000,-0.100000)"
fill="#000000" stroke="none">
<path d="M4835 7905 c-38 -7 -95 -22 -125 -34 -30 -12 -63 -21 -73 -21 -23 0
-74 -26 -110 -56 -15 -13 -54 -37 -87 -55 -33 -17 -79 -53 -102 -81 -24 -27
-79 -88 -124 -136 -88 -95 -180 -216 -213 -280 -12 -23 -27 -45 -35 -49 -8 -4
-43 -57 -79 -118 -37 -60 -74 -121 -84 -135 -27 -37 -48 -88 -63 -155 -8 -33
-29 -90 -47 -128 -18 -37 -33 -73 -33 -80 0 -7 -9 -37 -20 -67 -12 -30 -25
-75 -31 -100 -35 -156 -43 -199 -58 -310 -13 -93 -20 -132 -53 -295 -23 -113
-25 -159 -15 -279 7 -76 21 -100 108 -184 50 -49 74 -98 94 -190 9 -41 -4
-134 -17 -130 -6 2 -18 24 -27 49 -25 64 -63 139 -72 139 -4 0 -15 18 -25 40
-20 45 -80 90 -119 90 -14 0 -36 -11 -49 -24 -22 -21 -23 -28 -15 -69 11 -59
29 -95 66 -127 45 -41 51 -42 74 -19 l22 22 23 -29 c13 -16 35 -40 49 -54 30
-31 30 -30 4 -87 -11 -25 -23 -61 -26 -79 -5 -30 -3 -34 23 -40 16 -4 34 -10
39 -14 14 -11 52 6 67 30 7 11 18 20 24 20 19 0 25 29 31 148 7 124 20 142 39
53 7 -28 16 -57 22 -64 26 -32 48 -86 51 -122 3 -50 13 -62 61 -70 34 -6 46
-2 92 28 29 19 87 44 128 55 42 12 96 32 120 46 30 17 60 26 89 26 28 0 52 6
63 17 20 18 83 43 110 43 20 0 35 57 19 73 -14 14 -14 47 0 47 24 0 49 -22 49
-44 0 -33 37 -46 135 -46 l84 0 43 40 c54 50 72 52 66 6 l-4 -34 71 -11 c129
-22 130 -21 131 21 0 21 3 40 6 44 11 10 66 -25 73 -46 3 -11 10 -20 15 -20
14 0 30 36 30 66 0 45 48 137 80 156 29 17 29 17 14 54 -9 21 -17 67 -17 103
-2 62 -3 66 -36 88 -19 13 -40 22 -47 19 -7 -3 -20 4 -29 14 -10 11 -33 22
-51 26 -34 6 -55 35 -32 43 7 2 28 19 47 38 49 49 81 63 127 56 49 -7 64 -19
64 -49 0 -35 27 -30 35 6 13 60 96 97 178 78 47 -10 144 -54 170 -76 23 -21
22 -73 -5 -118 -26 -45 -40 -123 -32 -187 5 -38 16 -57 55 -100 44 -47 48 -55
42 -87 -3 -19 -6 -39 -7 -45 0 -6 19 -9 47 -7 l47 3 -22 -45 c-24 -51 -20 -66
16 -47 13 7 33 10 44 7 15 -5 29 3 58 34 38 40 93 66 119 56 8 -3 19 -22 24
-43 19 -70 25 -73 143 -80 l107 -6 30 32 c17 18 35 30 41 26 6 -3 8 -10 5 -15
-14 -23 34 -48 104 -55 59 -6 82 -14 124 -42 61 -41 94 -53 122 -42 17 6 16 8
-12 14 -52 12 -109 75 -68 75 19 0 19 14 2 29 -8 6 -20 29 -27 51 -17 51 -75
100 -177 147 -77 36 -113 46 -227 63 -32 4 -65 15 -73 23 -12 12 -7 16 44 30
32 8 102 18 155 22 86 5 97 4 92 -9 -5 -13 1 -16 31 -16 22 0 47 -8 62 -20 14
-11 37 -20 51 -20 32 0 102 -21 102 -31 0 -4 -6 -10 -12 -13 -7 -3 7 -4 31 -2
24 3 48 10 52 18 5 7 7 51 4 98 -4 76 -3 86 17 107 12 13 27 23 34 23 6 0 17
6 23 14 7 8 37 27 67 42 l55 28 20 -21 c11 -11 24 -36 28 -56 5 -19 6 -215 3
-436 -5 -378 -4 -402 14 -438 13 -25 19 -59 19 -100 0 -35 1 -63 2 -63 1 0 13
4 27 10 26 9 26 11 26 114 0 113 -9 152 -42 174 -19 14 -20 21 -13 121 4 58
13 124 21 146 7 22 14 47 14 56 0 9 20 47 45 85 25 37 45 74 45 81 0 7 9 21
20 30 11 10 22 33 26 53 3 19 16 58 29 85 29 61 37 116 39 265 l2 115 78 -3
c111 -4 116 2 116 133 0 106 -12 161 -57 270 -29 68 -86 168 -118 205 -21 24
-76 116 -126 209 -21 39 -49 64 -99 88 -8 4 -26 21 -40 37 -14 17 -45 52 -70
77 -25 26 -53 61 -62 78 -9 17 -28 35 -42 41 -14 5 -30 18 -36 30 -6 11 -18
20 -27 20 -16 0 -109 63 -130 88 -8 10 -9 19 -3 27 14 17 2 25 -37 25 -18 0
-33 4 -33 9 0 10 -110 61 -132 61 -8 0 -25 11 -38 25 -13 14 -31 25 -40 25
-11 0 -20 11 -24 30 -5 28 -8 30 -27 20 -17 -9 -30 -7 -72 14 -87 43 -198 86
-284 111 -46 13 -87 26 -92 29 -5 3 -82 10 -172 15 -293 18 -488 13 -571 -15
-27 -9 -60 -14 -74 -11 -13 2 -28 -1 -32 -8 -9 -15 -57 -40 -97 -49 -46 -11
-176 -76 -216 -108 -40 -30 -64 -36 -72 -15 -4 8 -6 7 -7 -3 -2 -30 -39 -60
-84 -69 -58 -11 -90 -32 -107 -70 -7 -16 -24 -33 -36 -36 -14 -3 -23 -13 -23
-25 0 -13 -5 -18 -15 -13 -10 3 -36 -14 -73 -49 -31 -30 -64 -59 -73 -64 -8
-5 -34 -34 -56 -64 -22 -30 -52 -66 -67 -79 -14 -14 -26 -30 -26 -37 0 -7 -14
-15 -30 -19 -20 -4 -36 -17 -47 -38 -8 -18 -30 -46 -48 -64 -18 -17 -41 -55
-51 -83 -10 -29 -33 -68 -51 -87 -18 -19 -33 -39 -33 -44 0 -5 -4 -9 -10 -9
-11 0 -120 -152 -142 -200 -9 -19 -20 -47 -23 -63 -4 -15 -13 -31 -20 -35 -6
-4 -15 -14 -18 -22 -4 -8 -4 3 -1 25 3 22 19 66 35 98 16 32 29 65 29 73 0 18
18 51 46 84 29 35 114 160 114 168 1 4 21 29 45 56 25 28 45 55 45 61 0 6 12
22 26 36 15 13 34 36 44 51 19 32 126 154 154 177 10 9 26 25 35 35 9 10 29
35 46 54 16 19 52 51 80 72 27 20 61 48 75 62 14 13 53 41 87 62 35 20 66 43
70 49 8 12 139 97 150 97 3 0 26 15 52 33 58 42 157 82 241 97 36 6 81 15 100
20 48 13 178 36 280 50 131 19 320 6 495 -35 39 -9 102 -21 140 -26 67 -10
164 -40 236 -72 19 -8 55 -23 82 -32 26 -10 47 -21 47 -25 0 -4 15 -15 33 -24
17 -9 48 -27 68 -39 20 -12 70 -42 110 -66 165 -98 189 -116 330 -251 25 -25
64 -58 85 -74 22 -17 59 -54 84 -84 25 -29 57 -65 73 -79 15 -15 27 -33 27
-41 0 -9 3 -12 7 -9 8 8 -15 82 -36 117 -8 14 -32 44 -53 67 -20 23 -40 54
-44 70 -4 15 -15 37 -24 48 -25 29 -50 81 -50 105 0 27 -22 70 -49 94 -12 11
-21 27 -21 36 0 22 -63 84 -106 105 -19 9 -50 32 -68 52 -47 49 -38 40 -173
172 -156 153 -286 230 -390 231 -23 0 -79 9 -125 21 -46 11 -101 25 -123 29
-22 5 -78 21 -125 35 l-85 26 -445 3 c-330 3 -463 0 -515 -9z m785 -133 c0
-11 -20 -33 -50 -53 -27 -19 -50 -37 -50 -41 0 -5 -14 -8 -30 -8 -18 0 -33 -6
-36 -15 -4 -8 -15 -15 -25 -15 -10 0 -19 -4 -19 -10 0 -13 53 -13 67 1 11 11
213 7 271 -6 33 -7 60 -39 43 -49 -5 -4 -21 -2 -36 4 -14 5 -95 10 -178 10
-130 0 -156 3 -180 18 l-27 19 50 46 c28 26 70 56 93 68 23 11 53 27 67 34 33
19 40 19 40 -3z m60 -7 c7 -8 19 -15 26 -15 8 0 14 -4 14 -10 0 -5 6 -10 13
-10 8 0 42 -29 76 -65 39 -40 57 -65 47 -65 -9 0 -16 4 -16 8 0 5 -19 15 -42
23 -49 15 -148 104 -148 131 0 22 13 23 30 3z m1561 -2088 c-8 -8 -11 -5 -11
10 0 12 -3 30 -6 40 -3 10 2 5 11 -11 12 -20 14 -31 6 -39z m-81 -24 c0 -7 -4
-13 -10 -13 -5 0 -10 12 -10 28 0 21 2 24 10 12 5 -8 10 -21 10 -27z m-1333 1
c9 -23 -18 -36 -33 -16 -7 9 -10 20 -8 24 9 14 34 9 41 -8z m55 -9 c0 -5 -5
-11 -11 -13 -6 -2 -11 4 -11 13 0 9 5 15 11 13 6 -2 11 -8 11 -13z m1332 -32
c8 -19 -14 -37 -28 -23 -10 10 -1 40 13 40 5 0 12 -8 15 -17z m36 -89 c0 -13
-4 -24 -9 -24 -13 0 -24 37 -16 50 10 16 25 1 25 -26z m-53 -46 c-3 -7 -5 -2
-5 12 0 14 2 19 5 13 2 -7 2 -19 0 -25z m-17 -78 c0 -5 -4 -10 -10 -10 -5 0
-10 5 -10 10 0 6 5 10 10 10 6 0 10 -4 10 -10z m-850 -140 c0 -6 -37 -10 -91
-10 -57 0 -88 4 -84 10 3 6 44 10 91 10 49 0 84 -4 84 -10z m103 -27 c-7 -2
-21 -2 -30 0 -10 3 -4 5 12 5 17 0 24 -2 18 -5z m-2736 -265 c-3 -8 -6 -5 -6
6 -1 11 2 17 5 13 3 -3 4 -12 1 -19z"/>
<path d="M7313 5159 c-12 -4 -34 -26 -49 -48 -28 -43 -28 -56 -6 -181 l8 -45
19 35 c59 109 65 126 65 182 0 63 -5 70 -37 57z"/>
<path d="M6148 4833 c7 -3 16 -2 19 1 4 3 -2 6 -13 5 -11 0 -14 -3 -6 -6z"/>
<path d="M6198 4813 c6 -2 18 -2 25 0 6 3 1 5 -13 5 -14 0 -19 -2 -12 -5z"/>
<path d="M4986 4704 c-3 -9 -2 -23 3 -32 8 -15 11 -13 20 11 14 36 14 37 -3
37 -8 0 -17 -7 -20 -16z"/>
<path d="M3617 4573 c-14 -13 -6 -41 23 -81 30 -42 55 -57 43 -26 -16 42 -60
113 -66 107z"/>
<path d="M4401 4107 c-16 -20 -6 -40 30 -56 42 -19 60 -2 39 37 -18 31 -51 40
-69 19z"/>
<path d="M4885 4035 c-4 -30 -5 -65 -1 -78 18 -75 133 -135 331 -173 39 -7 83
-16 98 -20 21 -5 36 -1 58 15 39 29 62 21 119 -39 49 -51 108 -72 130 -45 6 7
13 57 16 111 3 55 10 104 15 109 6 6 59 9 126 8 103 -2 119 0 154 20 21 12 39
27 39 33 0 16 -107 45 -176 47 -58 2 -62 0 -114 -43 -55 -46 -96 -56 -145 -36
-11 5 -47 9 -79 9 -48 1 -63 5 -82 24 -13 13 -30 23 -39 23 -8 0 -15 4 -15 8
0 11 -69 44 -79 38 -4 -3 -72 -6 -151 -7 l-144 -2 -22 27 c-13 14 -25 26 -28
26 -2 0 -8 -25 -11 -55z"/>
<path d="M6290 3800 c0 -8 9 -26 20 -40 11 -14 20 -31 20 -39 0 -8 10 -28 23
-45 51 -68 77 -137 77 -204 0 -39 4 -61 10 -57 6 3 10 16 10 28 0 12 10 41 22
63 21 41 21 42 4 97 -13 42 -28 64 -58 89 -22 18 -60 53 -84 78 -25 25 -44 38
-44 30z"/>
<path d="M4482 3615 c-16 -34 -15 -72 0 -77 16 -6 38 36 38 73 0 36 -23 38
-38 4z"/>
<path d="M5102 3475 c-24 -7 -78 -18 -120 -24 -42 -5 -99 -17 -127 -25 -50
-16 -50 -16 -68 9 -23 30 -41 31 -109 5 -34 -13 -78 -20 -123 -20 -59 -1 -67
-3 -53 -13 9 -8 23 -33 30 -56 17 -58 40 -68 111 -47 30 9 69 16 86 16 47 0
121 -23 121 -37 0 -7 6 -13 14 -13 8 0 26 -13 39 -30 14 -16 30 -30 35 -30 5
0 15 -7 22 -15 27 -32 110 -59 110 -35 0 5 -11 20 -25 34 -31 31 -36 105 -7
107 74 5 246 -6 337 -21 141 -23 202 -24 251 -4 59 25 297 26 339 2 58 -34
116 -15 153 51 21 38 52 56 52 30 0 -9 128 -3 139 7 3 2 -6 16 -20 30 -21 23
-29 25 -69 19 -48 -8 -89 -8 -215 -1 -62 4 -73 3 -47 -5 28 -8 44 -28 25 -30
-5 0 -24 -2 -43 -5 -76 -9 -211 -1 -253 15 -16 6 -44 11 -63 11 -38 0 -72 16
-93 44 -11 14 -22 17 -52 12 -22 -3 -39 -2 -39 2 0 11 -69 32 -105 32 -18 0
-28 -6 -32 -20 -3 -13 -14 -20 -29 -20 -13 0 -33 9 -44 20 -23 23 -65 25 -128
5z m253 -65 c3 0 5 7 5 15 0 19 40 20 65 2 34 -26 8 -38 -73 -36 -81 3 -106
16 -69 36 18 9 26 9 44 -3 12 -8 25 -14 28 -14z m695 -95 c-12 -15 -30 -12
-30 6 0 5 10 9 21 9 18 0 19 -2 9 -15z"/>
<path d="M5130 3180 c0 -5 5 -10 11 -10 5 0 7 5 4 10 -3 6 -8 10 -11 10 -2 0
-4 -4 -4 -10z"/>
<path d="M5182 2998 c8 -12 24 -25 34 -26 11 -2 33 -17 49 -32 19 -19 46 -32
75 -36 25 -4 56 -16 71 -26 19 -15 34 -17 67 -12 23 3 47 12 53 20 6 7 17 10
25 7 8 -3 14 0 14 6 0 6 6 11 13 11 8 0 24 8 35 18 12 9 33 25 47 35 52 37
-12 51 -98 20 -42 -15 -53 -15 -95 -3 -46 13 -128 25 -246 36 l-60 6 16 -24z"/>
<path d="M4180 2812 c0 -12 4 -22 9 -22 10 0 9 26 -2 36 -4 4 -7 -2 -7 -14z"/>
<path d="M4226 2698 c-5 -26 -5 -51 -1 -57 3 -6 1 -11 -4 -11 -25 0 -8 -28 20
-34 18 -3 28 -10 24 -16 -4 -7 -19 -8 -37 -5 l-29 7 7 -39 c4 -21 11 -39 15
-41 19 -8 62 -119 62 -159 -1 -31 6 -49 23 -68 13 -14 24 -37 24 -51 0 -14 3
-23 8 -21 4 3 8 -6 9 -20 0 -14 6 -29 13 -33 7 -4 15 -23 19 -41 5 -24 17 -40
41 -55 37 -24 52 -37 104 -97 29 -32 32 -38 17 -46 -15 -9 -15 -12 2 -39 9
-17 17 -39 17 -49 0 -19 79 -93 99 -93 6 0 18 -11 27 -25 19 -29 87 -43 135
-26 24 8 37 8 58 -3 14 -8 44 -22 66 -31 22 -9 53 -22 68 -29 29 -13 77 -10
77 5 0 5 -11 11 -25 15 -14 3 -30 14 -35 24 -8 14 -5 19 15 22 14 3 30 -1 36
-8 23 -28 44 -16 44 23 0 26 5 38 15 40 68 9 90 16 90 27 0 7 11 24 24 37 21
21 25 39 17 82 -2 10 -31 9 -31 -2 0 -13 -32 -23 -42 -13 -5 5 -4 20 1 35 9
23 8 27 -7 27 -9 0 -24 5 -32 10 -13 9 -13 11 0 19 8 6 11 13 7 17 -4 4 -18
-3 -32 -16 l-25 -23 0 28 c0 39 -34 73 -66 67 -30 -5 -42 -22 -17 -22 19 0 43
-18 43 -31 0 -17 -33 -16 -74 2 -53 23 -62 34 -46 54 10 12 9 15 -2 15 -8 0
-20 11 -26 24 -6 14 -22 26 -40 29 -18 4 -33 14 -37 27 -3 11 -13 20 -21 20
-8 0 -24 9 -36 20 -12 11 -40 32 -62 47 -23 16 -49 38 -59 51 -10 12 -33 30
-50 38 -37 20 -47 30 -67 68 -18 36 -87 108 -117 125 -13 6 -23 18 -23 25 0 8
-23 29 -51 46 -35 23 -57 47 -75 81 -13 27 -28 49 -33 49 -5 0 -11 10 -13 23
-3 14 -7 6 -12 -25z m44 -158 c0 -5 -4 -10 -10 -10 -5 0 -10 5 -10 10 0 6 5
10 10 10 6 0 10 -4 10 -10z"/>
<path d="M4587 2405 c7 -32 30 -52 44 -38 8 8 5 14 -10 22 -12 7 -21 18 -21
26 0 8 -4 15 -9 15 -4 0 -6 -11 -4 -25z"/>
<path d="M5441 2289 c-20 -50 -24 -64 -22 -75 1 -7 -7 -15 -16 -19 -17 -6 -17
-7 1 -20 19 -15 14 -35 -9 -35 -8 0 -19 -9 -25 -20 -6 -11 -20 -20 -31 -20
-11 0 -35 -6 -54 -14 -30 -13 -35 -13 -51 5 -13 15 -14 22 -5 33 10 12 8 19
-7 34 -19 19 -19 19 -37 -4 -10 -13 -26 -24 -35 -24 -10 0 -20 -7 -24 -15 -3
-8 -1 -15 5 -15 6 0 -3 -11 -18 -25 -21 -18 -24 -24 -12 -25 10 0 20 -11 23
-26 5 -19 11 -24 26 -19 12 4 22 0 28 -12 9 -16 14 -16 47 -4 38 14 65 3 65
-25 0 -19 17 -18 24 2 5 14 17 16 69 12 43 -4 66 -1 74 7 7 7 9 15 6 18 -3 3
3 23 12 45 14 30 22 38 36 35 25 -7 24 -11 -8 -36 l-26 -21 28 -8 c20 -5 34
-3 45 7 9 8 27 15 40 15 23 0 81 16 109 29 31 15 23 31 -16 31 -45 0 -72 13
-53 25 10 6 9 11 -5 21 -18 13 -29 59 -19 76 3 5 12 4 19 -2 22 -18 25 3 4 28
-10 13 -23 20 -29 17 -6 -4 -17 1 -25 11 -7 11 -17 16 -21 12 -4 -4 -12 -4
-18 1 -6 5 -28 12 -48 16 -33 6 -39 4 -47 -16z m29 -178 c0 -13 -84 -5 -88 8
-3 10 2 12 21 7 18 -4 27 -1 32 12 6 16 7 16 21 -2 8 -11 14 -22 14 -25z"/>
<path d="M6330 2300 c0 -5 6 -10 14 -10 8 0 18 5 21 10 3 6 -3 10 -14 10 -12
0 -21 -4 -21 -10z"/>
<path d="M6880 2285 c0 -19 76 -67 98 -62 15 3 14 5 -3 12 -11 5 -22 11 -25
14 -10 11 -70 42 -70 36z"/>
<path d="M4751 2264 c0 -11 3 -14 6 -6 3 7 2 16 -1 19 -3 4 -6 -2 -5 -13z"/>
<path d="M4856 2261 c-19 -7 -19 -8 2 -13 15 -4 22 -2 22 8 0 8 -1 14 -2 13
-2 0 -12 -4 -22 -8z"/>
<path d="M5011 2208 c-14 -38 3 -68 52 -93 38 -19 37 -19 37 4 0 10 6 21 14
24 9 4 11 16 7 44 -6 37 -7 38 -54 41 -42 3 -48 0 -56 -20z"/>
<path d="M4960 2159 c0 -8 -12 -10 -35 -6 -39 6 -44 -3 -18 -33 13 -14 20 -17
30 -8 10 8 13 7 13 -4 0 -8 21 -22 48 -31 57 -21 62 -21 62 -2 0 8 -3 15 -7
16 -5 0 -18 2 -31 3 -27 3 -66 42 -52 51 13 8 13 25 0 25 -5 0 -10 -5 -10 -11z"/>
<path d="M5336 1951 c-4 -5 -3 -16 0 -25 4 -10 1 -16 -7 -16 -7 0 -10 -2 -7
-5 8 -9 68 16 62 26 -9 16 -43 29 -48 20z"/>
<path d="M6183 1427 c-15 -18 -22 -44 -16 -51 9 -8 43 24 43 40 0 19 -16 26
-27 11z"/>
</g>
</svg>
